<svg id="Lager_19" data-name="Lager 19" xmlns="http://www.w3.org/2000/svg" width="582.946" height="404.664" viewBox="0 0 582.946 404.664">
  <metadata><?xpacket begin="﻿" id="W5M0MpCehiHzreSzNTczkc9d"?>
<x:xmpmeta xmlns:x="adobe:ns:meta/" x:xmptk="Adobe XMP Core 5.6-c142 79.160924, 2017/07/13-01:06:39        ">
   <rdf:RDF xmlns:rdf="http://www.w3.org/1999/02/22-rdf-syntax-ns#">
      <rdf:Description rdf:about=""/>
   </rdf:RDF>
</x:xmpmeta>
                                                                                                    
                                                                                                    
                                                                                                    
                                                                                                    
                                                                                                    
                                                                                                    
                                                                                                    
                                                                                                    
                                                                                                    
                                                                                                    
                                                                                                    
                                                                                                    
                                                                                                    
                                                                                                    
                                                                                                    
                                                                                                    
                                                                                                    
                                                                                                    
                                                                                                    
                                                                                                    
                           
<?xpacket end="w"?></metadata>
<defs>
    <style>
      .cls-1 {
        fill: none;
        stroke: #000;
        stroke-linecap: square;
        stroke-linejoin: round;
        stroke-miterlimit: 1.5;
        stroke-width: 33.477px;
        fill-rule: evenodd;
      }
    </style>
  </defs>
  <path id="Lager_4" data-name="Lager 4" class="cls-1" d="M590.09,541.105s-19.115-65.08-41.448-93.88" transform="translate(-110.637 -320.856)"/>
  <path id="Lager_5" data-name="Lager 5" class="cls-1" d="M488.8,553.409s-19.115-65.08-41.447-93.88" transform="translate(-110.637 -320.856)"/>
  <path id="Lager_6" data-name="Lager 6" class="cls-1" d="M389.514,550.855s-19.114-65.079-41.447-93.879" transform="translate(-110.637 -320.856)"/>
  <path id="Lager_7" data-name="Lager 7" class="cls-1" d="M291.215,547.437s-19.115-65.08-41.447-93.88" transform="translate(-110.637 -320.856)"/>
  <path id="Lager_8" data-name="Lager 8" class="cls-1" d="M546.876,459.14s-44.893-119.865-67.947-78.268" transform="translate(-110.637 -320.856)"/>
  <path id="Lager_9" data-name="Lager 9" class="cls-1" d="M443.052,462.256s-44.892-119.865-67.946-78.267" transform="translate(-110.637 -320.856)"/>
  <path id="Lager_10" data-name="Lager 10" class="cls-1" d="M443.052,462.256s-44.892-119.865-67.946-78.267" transform="translate(-110.637 -320.856)"/>
  <path id="Lager_11" data-name="Lager 11" class="cls-1" d="M345.157,459.005s-44.892-119.865-67.946-78.267" transform="translate(-110.637 -320.856)"/>
  <path id="Lager_12" data-name="Lager 12" class="cls-1" d="M246.447,458.08S201.555,338.215,178.5,379.812" transform="translate(-110.637 -320.856)"/>
  <path id="Lager_13" data-name="Lager 13" class="cls-1" d="M526.7,539.6c-3.261,95.486,13.5,171.279,37.4,169.148s45.955-81.383,49.215-176.869-13.5-171.279-37.4-169.148S529.961,444.113,526.7,539.6Z" transform="translate(-110.637 -320.856)"/>
  <path id="Lager_14" data-name="Lager 14" class="cls-1" d="M426.973,539.3c-3.26,95.486,13.5,171.279,37.4,169.148s45.955-81.383,49.215-176.87-13.5-171.278-37.4-169.148S430.234,443.813,426.973,539.3Z" transform="translate(-110.637 -320.856)"/>
  <path id="Lager_15" data-name="Lager 15" class="cls-1" d="M327.246,539c-3.26,95.486,13.5,171.278,37.4,169.148s45.955-81.384,49.215-176.87-13.5-171.279-37.4-169.148S330.507,443.512,327.246,539Z" transform="translate(-110.637 -320.856)"/>
  <path id="Lager_16" data-name="Lager 16" class="cls-1" d="M227.519,538.7c-3.26,95.486,13.5,171.279,37.4,169.148s45.956-81.383,49.216-176.869-13.5-171.279-37.4-169.148S230.78,443.212,227.519,538.7Z" transform="translate(-110.637 -320.856)"/>
  <path id="Lager_17" data-name="Lager 17" class="cls-1" d="M127.792,538.4c-3.26,95.486,13.5,171.279,37.4,169.148s45.956-81.384,49.216-176.87-13.5-171.278-37.4-169.148S131.053,442.912,127.792,538.4Z" transform="translate(-110.637 -320.856)"/>
  <path id="Lager_18" data-name="Lager 18" class="cls-1" d="M660.968,557.139s-58.031,19.1-71.8-146.261c0,0-16.654-116.167-42.643,97.525" transform="translate(-110.637 -320.856)"/>
</svg>
